<?xml version="1.0" encoding="UTF-8"?>
<svg width="42px" height="42px" viewBox="0 0 42 42" version="1.1" xmlns="http://www.w3.org/2000/svg" xmlns:xlink="http://www.w3.org/1999/xlink">
    <g id="ic_instagram_footer" stroke="none" stroke-width="1" fill="none" fill-rule="evenodd">
        <g>
            <circle id="Oval-2" fill="#FFFFFF" cx="21" cy="21" r="21"></circle>
            <g id="ic_instagram" transform="translate(12.000000, 12.000000)" fill="#005CDB" fill-rule="nonzero">
                <path d="M17.4946154,3.10656371 C17.2661538,2.51583012 16.9615385,2.01544402 16.4630769,1.51505792 C15.9646154,1.01467181 15.4661538,0.708880309 14.8776923,0.47953668 C14.31,0.257142857 13.6523077,0.104247104 12.7038462,0.0625482625 C11.7484615,0.0208494208 11.4438462,0.00694980695 9.00692308,0.00694980695 C6.57,0.00694980695 6.26538462,0.0138996139 5.31,0.0625482625 C4.35461538,0.104247104 3.70384615,0.257142857 3.13615385,0.47953668 C2.54769231,0.708880309 2.04923077,1.01467181 1.55076923,1.51505792 C1.05230769,2.01544402 0.747692308,2.51583012 0.519230769,3.10656371 C0.297692308,3.67644788 0.145384615,4.33667954 0.103846154,5.28880309 C0.0623076923,6.24787645 0.0484615385,6.55366795 0.0484615385,9 C0.0484615385,11.446332 0.0553846154,11.7521236 0.103846154,12.7111969 C0.145384615,13.6702703 0.297692308,14.3235521 0.519230769,14.8934363 C0.747692308,15.4841699 1.05230769,15.984556 1.55076923,16.4849421 C2.04923077,16.9853282 2.54769231,17.2911197 3.13615385,17.5204633 C3.70384615,17.7428571 4.36153846,17.8957529 5.31,17.9374517 C6.26538462,17.9791506 6.57,17.9930502 9.00692308,17.9930502 C11.4438462,17.9930502 11.7484615,17.9861004 12.7038462,17.9374517 C13.6592308,17.8957529 14.31,17.7428571 14.8776923,17.5204633 C15.4661538,17.2911197 15.9646154,16.9853282 16.4630769,16.4849421 C16.9615385,15.984556 17.2661538,15.4841699 17.4946154,14.8934363 C17.7161538,14.3235521 17.8684615,13.6633205 17.91,12.7111969 C17.9515385,11.7521236 17.9653846,11.446332 17.9653846,9 C17.9653846,6.55366795 17.9584615,6.24787645 17.91,5.28880309 C17.8684615,4.32972973 17.7161538,3.67644788 17.4946154,3.10656371 Z M16.2969231,12.634749 C16.2553846,13.5104247 16.11,13.9899614 15.9853846,14.3027027 C15.8261538,14.7196911 15.6253846,15.0254826 15.3138462,15.3382239 C15.0023077,15.6509653 14.7046154,15.8455598 14.2823077,16.0123552 C13.9638462,16.1374517 13.4930769,16.2833977 12.6207692,16.3250965 C11.6723077,16.3667954 11.3953846,16.380695 9,16.380695 C6.60461538,16.380695 6.32076923,16.3737452 5.37923077,16.3250965 C4.50692308,16.2833977 4.02923077,16.1374517 3.71769231,16.0123552 C3.30230769,15.8525097 2.99769231,15.6509653 2.68615385,15.3382239 C2.37461538,15.0254826 2.18076923,14.7266409 2.01461538,14.3027027 C1.89,13.9830116 1.74461538,13.5104247 1.70307692,12.634749 C1.66153846,11.6826255 1.64769231,11.3976834 1.64769231,9 C1.64769231,6.6023166 1.65461538,6.31042471 1.70307692,5.36525097 C1.74461538,4.48957529 1.89,4.01003861 2.01461538,3.6972973 C2.17384615,3.28030888 2.37461538,2.97451737 2.68615385,2.66177606 C2.99769231,2.34903475 3.29538462,2.15444015 3.71769231,1.98764479 C4.03615385,1.86254826 4.50692308,1.71660232 5.37923077,1.67490347 C6.32769231,1.63320463 6.61153846,1.61930502 9,1.61930502 C11.3884615,1.61930502 11.6792308,1.62625483 12.6207692,1.67490347 C13.4930769,1.71660232 13.9707692,1.86254826 14.2823077,1.98764479 C14.6976923,2.14749035 15.0023077,2.34903475 15.3138462,2.66177606 C15.6253846,2.97451737 15.8192308,3.27335907 15.9853846,3.6972973 C16.11,4.01698842 16.2553846,4.48957529 16.2969231,5.36525097 C16.3384615,6.31737452 16.3523077,6.6023166 16.3523077,9 C16.3523077,11.3976834 16.3384615,11.6895753 16.2969231,12.634749 Z" id="XMLID_142_"></path>
                <path d="M9,4.37837838 C6.45923077,4.37837838 4.39615385,6.44942085 4.39615385,9 C4.39615385,11.5505792 6.45923077,13.6216216 9,13.6216216 C11.5407692,13.6216216 13.6038462,11.5505792 13.6038462,9 C13.6038462,6.44942085 11.5407692,4.37837838 9,4.37837838 Z M9,12.0023166 C7.35230769,12.0023166 6.00923077,10.6610039 6.00923077,9 C6.00923077,7.34594595 7.34538462,5.9976834 9,5.9976834 C10.6546154,5.9976834 11.9907692,7.33899614 11.9907692,9 C11.9907692,10.6540541 10.6476923,12.0023166 9,12.0023166 Z" id="XMLID_145_"></path>
                <ellipse id="XMLID_143_" cx="13.7838462" cy="4.1976834" rx="1.07307692" ry="1.07722008"></ellipse>
            </g>
        </g>
    </g>
</svg>
