<?xml version="1.0" encoding="UTF-8"?>
<svg width="42px" height="42px" viewBox="0 0 42 42" version="1.1" xmlns="http://www.w3.org/2000/svg" xmlns:xlink="http://www.w3.org/1999/xlink">
    <!-- Generator: Sketch 56.2 (81672) - https://sketch.com -->
    <title>ic_ok footer </title>
    <desc>Created with Sketch.</desc>
    <g id="ic_ok-footer-" stroke="none" stroke-width="1" fill="none" fill-rule="evenodd">
        <g id="ic_facebook-footer" fill="#0064F8">
            <g id="Oval-2-Copy-3">
                <circle cx="21" cy="21" r="21"></circle>
            </g>
        </g>
        <g id="Group" transform="translate(14.000000, 10.000000)" fill="#FFFFFF" fill-rule="nonzero">
            <path d="M6.81106965,-4.70734562e-14 C4.1422172,-4.70734562e-14 1.9422172,2.16393443 1.9422172,4.86885246 C1.9422172,7.53770492 4.10615162,9.73770492 6.81106965,9.73770492 C9.51598769,9.73770492 11.6799221,7.57377049 11.6799221,4.86885246 C11.6799221,2.16393443 9.47992211,-4.70734562e-14 6.81106965,-4.70734562e-14 Z M6.81106965,6.49180328 C5.90943031,6.49180328 5.18811883,5.7704918 5.18811883,4.86885246 C5.18811883,3.96721311 5.90943031,3.24590164 6.81106965,3.24590164 C7.712709,3.24590164 8.43402047,3.96721311 8.43402047,4.86885246 C8.43402047,5.7704918 7.712709,6.49180328 6.81106965,6.49180328 Z" id="Shape"></path>
            <path d="M12.7979549,13.0196721 C11.5717254,13.704918 10.2372992,14.1737705 8.90287293,14.3901639 L12.6897582,19.042623 C13.1225451,19.5836066 13.2307418,20.3409836 12.8340205,20.9180328 C12.2209057,21.8557377 10.9225451,21.8918033 10.2733647,21.0622951 L6.77500408,16.7704918 L3.312709,21.0622951 C2.98811883,21.4590164 2.55533195,21.6393443 2.08647949,21.6393443 C1.61762703,21.6393443 1.14877457,21.4229508 0.824184409,20.9901639 C0.427463097,20.4491803 0.463528671,19.547541 0.896315556,19.0065574 L4.64713523,14.3180328 C3.312709,14.0655738 1.97828277,13.6327869 0.788118835,12.947541 C0.0307417857,12.5147541 -0.221717231,11.5770492 0.211069655,10.7836066 C0.64385654,10.0262295 1.61762703,9.77377049 2.37500408,10.2065574 C5.11598769,11.757377 8.5422172,11.757377 11.3192664,10.242623 C12.0766434,9.80983607 13.0504139,10.0983607 13.4471352,10.8557377 C13.8438565,11.6491803 13.5553319,12.5868852 12.7979549,13.0196721 Z" id="Path"></path>
        </g>
    </g>
</svg>