<?xml version="1.0" encoding="UTF-8"?>
<svg width="42px" height="42px" viewBox="0 0 42 42" version="1.1" xmlns="http://www.w3.org/2000/svg" xmlns:xlink="http://www.w3.org/1999/xlink">
    <!-- Generator: Sketch 56.2 (81672) - https://sketch.com -->
    <title>ic_whatsapp footer  </title>
    <desc>Created with Sketch.</desc>
    <g id="ic_whatsapp-footer--" stroke="none" stroke-width="1" fill="none" fill-rule="evenodd">
        <g id="ic_facebook-footer" fill="#0064F8">
            <g id="Oval-2-Copy-3">
                <circle cx="21" cy="21" r="21"></circle>
            </g>
        </g>
        <g id="Shape-2" transform="translate(11.000000, 10.093692)" fill="#FFFFFF" fill-rule="nonzero">
            <path d="M20.7692308,10.1171538 C20.7692308,15.7047692 16.2048462,20.2343077 10.5733846,20.2343077 C8.78561538,20.2343077 7.10607692,19.7773846 5.64484615,18.9754615 L-1.42108547e-13,20.7692308 L1.84038462,15.3410769 C0.912,13.8166154 0.377307692,12.0286154 0.377307692,10.1171538 C0.377307692,4.52953846 4.94215385,-2.48689958e-14 10.5736154,-2.48689958e-14 C16.2053077,-2.48689958e-14 20.7692308,4.52953846 20.7692308,10.1171538 M10.5733846,1.61123077 C5.84630769,1.61123077 2.00123077,5.427 2.00123077,10.1171538 C2.00123077,11.9785385 2.60792308,13.7021538 3.63415385,15.1043077 L2.56315385,18.2630769 L5.85738462,17.2160769 C7.21084615,18.1047692 8.83223077,18.6230769 10.5736154,18.6230769 C15.3,18.6230769 19.1457692,14.8077692 19.1457692,10.1173846 C19.1455385,5.42723077 15.3002308,1.61123077 10.5733846,1.61123077 M15.7220769,12.4472308 C15.6590769,12.3440769 15.4926923,12.2817692 15.243,12.1578462 C14.9928462,12.0339231 13.7637692,11.4336923 13.5353077,11.3515385 C13.3061538,11.2686923 13.1390769,11.2271538 12.9726923,11.4752308 C12.8063077,11.7235385 12.3272308,12.2817692 12.1811538,12.4472308 C12.0353077,12.6131538 11.8896923,12.6339231 11.6395385,12.5097692 C11.3898462,12.3858462 10.5846923,12.1236923 9.63,11.2788462 C8.88715385,10.6218462 8.38546154,9.81023077 8.23961538,9.56192308 C8.094,9.31384615 8.22438462,9.17976923 8.34923077,9.05630769 C8.46184615,8.94507692 8.59938462,8.76669231 8.72423077,8.622 C8.84953846,8.47707692 8.89107692,8.37392308 8.97392308,8.20823077 C9.05769231,8.04276923 9.01592308,7.89807692 8.95315385,7.77369231 C8.89084615,7.64976923 8.39053846,6.42946154 8.18238462,5.93307692 C7.97423077,5.43669231 7.76630769,5.51930769 7.62023077,5.51930769 C7.47461538,5.51930769 7.30776923,5.49853846 7.14115385,5.49853846 C6.97453846,5.49853846 6.70361538,5.56061538 6.47446154,5.80869231 C6.24553846,6.057 5.60007692,6.657 5.60007692,7.87707692 C5.60007692,9.09738462 6.49523077,10.2763846 6.62053846,10.4418462 C6.74538462,10.6070769 8.349,13.1926154 10.8897692,14.1856154 C13.4307692,15.1779231 13.4307692,14.8467692 13.8890769,14.8052308 C14.3469231,14.7639231 15.3673846,14.2054615 15.5764615,13.6266923 C15.7841538,13.047 15.7841538,12.5506154 15.7220769,12.4472308" id="Shape"></path>
        </g>
    </g>
</svg>