<?xml version="1.0" encoding="utf-8"?>
<!-- Generator: Adobe Illustrator 23.0.6, SVG Export Plug-In . SVG Version: 6.00 Build 0)  -->
<svg version="1.1" id="Layer_1" xmlns="http://www.w3.org/2000/svg" xmlns:xlink="http://www.w3.org/1999/xlink" x="0px" y="0px"
	 viewBox="0 0 358 238" style="enable-background:new 0 0 358 238;" xml:space="preserve">
<style type="text/css">
	.st0{clip-path:url(#SVGID_2_);}
	.st1{clip-path:url(#SVGID_4_);fill:#252525;}
	.st2{fill-rule:evenodd;clip-rule:evenodd;fill:url(#SVGID_5_);}
</style>
<g>
	<g>
		<defs>
			<path id="SVGID_1_" d="M246.6,224.7c-1.4,0-2.7-0.2-3.8-0.7c-1.2-0.5-2.2-1.1-3.1-2s-1.6-2-2.1-3.3s-0.8-2.8-0.8-4.4
				s0.3-3.1,0.8-4.4c0.6-1.3,1.3-2.4,2.2-3.3c0.9-0.9,2-1.5,3.3-2s2.5-0.7,3.9-0.7c1.2,0,2.3,0.2,3.2,0.6c0.9,0.4,1.8,0.9,2.5,1.5
				l-2.7,3.8c-0.9-0.8-1.8-1.2-2.7-1.2c-1.4,0-2.6,0.5-3.4,1.5s-1.2,2.4-1.2,4.1s0.4,3.1,1.3,4.1c0.8,1,1.9,1.5,3.2,1.5
				c0.6,0,1.3-0.1,1.8-0.4c0.6-0.3,1.2-0.6,1.7-1l2.3,3.8c-1,0.9-2,1.5-3.2,1.8C248.8,224.5,247.7,224.7,246.6,224.7z M227,201.5
				c-1,0-1.8-0.3-2.4-0.9s-1-1.3-1-2.2s0.3-1.6,1-2.2c0.6-0.6,1.4-0.8,2.4-0.8s1.8,0.3,2.4,0.8c0.6,0.6,0.9,1.3,0.9,2.2
				s-0.3,1.6-0.9,2.2S228,201.5,227,201.5z M224.1,224.2v-19.8h5.8v19.8H224.1z M209.3,224.7c-1.3,0-2.6-0.3-4-0.8s-2.5-1.2-3.6-2
				l2.6-3.7c0.9,0.7,1.8,1.2,2.6,1.6c0.8,0.3,1.7,0.5,2.5,0.5c0.9,0,1.5-0.1,1.9-0.4s0.6-0.7,0.6-1.2c0-0.3-0.1-0.6-0.3-0.9
				c-0.2-0.3-0.5-0.5-0.9-0.7s-0.8-0.4-1.3-0.6s-1-0.4-1.5-0.6c-0.6-0.2-1.2-0.5-1.8-0.8c-0.6-0.3-1.2-0.7-1.7-1.2s-0.9-1-1.2-1.6
				c-0.3-0.6-0.5-1.3-0.5-2.2c0-0.9,0.2-1.7,0.5-2.5c0.4-0.8,0.9-1.4,1.5-2c0.7-0.5,1.5-1,2.4-1.3s2-0.5,3.1-0.5
				c1.5,0,2.8,0.3,4,0.8c1.1,0.5,2.1,1.1,3,1.7l-2.6,3.5c-0.7-0.5-1.4-0.9-2.1-1.2c-0.7-0.3-1.4-0.4-2.1-0.4c-1.5,0-2.2,0.5-2.2,1.6
				c0,0.3,0.1,0.6,0.3,0.8c0.2,0.2,0.5,0.4,0.9,0.6s0.8,0.4,1.2,0.5c0.5,0.2,0.9,0.4,1.4,0.5c0.6,0.2,1.3,0.5,1.9,0.8
				s1.2,0.7,1.7,1.1s0.9,1,1.3,1.7c0.3,0.7,0.5,1.4,0.5,2.3s-0.2,1.7-0.5,2.5s-0.9,1.4-1.5,2c-0.7,0.6-1.5,1-2.5,1.4
				C211.8,224.5,210.7,224.7,209.3,224.7z M183.9,224.7c-2.1,0-3.7-0.7-4.7-2.1s-1.4-3.4-1.4-5.9v-12.3h5.8v11.5
				c0,1.4,0.2,2.4,0.6,3c0.4,0.5,1,0.8,1.9,0.8c0.7,0,1.4-0.2,1.9-0.5s1-0.9,1.6-1.7v-13.1h5.8v19.8h-4.8l-0.4-2.8h-0.1
				c-0.8,1-1.8,1.8-2.7,2.4C186.5,224.4,185.3,224.7,183.9,224.7z M145.3,224.2v-26h6.4l4.2,11.6c0.3,0.8,0.5,1.6,0.8,2.4
				c0.2,0.8,0.5,1.6,0.8,2.4h0.2c0.3-0.8,0.5-1.6,0.7-2.4s0.5-1.6,0.7-2.4l4.1-11.6h6.4v26h-5.3v-9.5c0-0.6,0-1.3,0.1-2.1
				c0.1-0.8,0.1-1.5,0.2-2.3c0.1-0.8,0.2-1.6,0.2-2.3c0.1-0.8,0.2-1.5,0.2-2.1h-0.2l-2.1,6.2L159,222h-3.2l-3.7-9.9l-2.1-6.2h-0.2
				c0.1,0.6,0.2,1.3,0.2,2.1c0.1,0.8,0.2,1.5,0.2,2.3c0.1,0.8,0.1,1.6,0.2,2.3c0.1,0.8,0.1,1.5,0.1,2.1v9.5H145.3z M309.3,179.3
				c-1,0-1.9-0.2-2.5-0.5c-0.7-0.3-1.2-0.8-1.6-1.3s-0.7-1.3-0.9-2.1c-0.2-0.8-0.3-1.7-0.3-2.7v-21.8h5.8V173c0,0.6,0.1,1,0.3,1.3
				c0.2,0.2,0.5,0.4,0.7,0.4h0.3c0.1,0,0.2,0,0.4-0.1l0.7,4.3c-0.3,0.1-0.7,0.2-1.2,0.3C310.6,179.3,310,179.3,309.3,179.3z
				 M287,174.8c0.7,0,1.2-0.1,1.7-0.4s1-0.7,1.5-1.2v-3.5c-2.1,0.3-3.5,0.7-4.3,1.3c-0.8,0.6-1.2,1.2-1.2,2c0,0.6,0.2,1.1,0.6,1.4
				S286.3,174.8,287,174.8z M285,179.3c-0.9,0-1.7-0.2-2.4-0.5c-0.7-0.3-1.3-0.7-1.8-1.3c-0.5-0.5-0.9-1.2-1.2-1.9
				c-0.3-0.7-0.4-1.5-0.4-2.4c0-2.1,0.9-3.7,2.6-4.9c1.7-1.2,4.6-2,8.5-2.4c-0.1-0.9-0.3-1.6-0.8-2.1s-1.2-0.8-2.3-0.8
				c-0.8,0-1.7,0.2-2.5,0.5s-1.7,0.8-2.7,1.3l-2.1-3.9c1.3-0.8,2.6-1.4,4-1.9s2.9-0.7,4.4-0.7c2.5,0,4.5,0.7,5.8,2.2
				c1.3,1.4,2,3.7,2,6.8v11.3h-4.8l-0.4-2h-0.2c-0.8,0.7-1.7,1.3-2.7,1.8C287.2,179.1,286.2,179.3,285,179.3z M254.4,178.9v-19.8
				h4.8l0.4,2.5h0.2c0.8-0.8,1.8-1.5,2.8-2.1s2.2-0.9,3.5-0.9c2.1,0,3.7,0.7,4.7,2.1s1.4,3.4,1.4,5.9v12.3h-5.8v-11.5
				c0-1.4-0.2-2.4-0.6-3c-0.4-0.5-1-0.8-1.8-0.8c-0.7,0-1.4,0.2-1.9,0.5s-1.1,0.8-1.7,1.4v13.4H254.4z M237.9,174.6
				c1.2,0,2.1-0.5,2.7-1.5s0.9-2.4,0.9-4.1s-0.3-3.1-0.9-4.1s-1.5-1.5-2.7-1.5s-2.1,0.5-2.7,1.5s-0.9,2.4-0.9,4.1s0.3,3.1,0.9,4.1
				S236.7,174.6,237.9,174.6z M237.9,179.3c-1.2,0-2.4-0.2-3.6-0.7s-2.2-1.1-3.1-2s-1.6-2-2.1-3.3s-0.8-2.8-0.8-4.4s0.3-3.1,0.8-4.4
				s1.2-2.4,2.1-3.3s1.9-1.5,3.1-2s2.4-0.7,3.6-0.7s2.4,0.2,3.6,0.7s2.2,1.1,3.1,2s1.6,2,2.1,3.3s0.8,2.8,0.8,4.4s-0.3,3.1-0.8,4.4
				s-1.2,2.4-2.1,3.3s-1.9,1.5-3.1,2S239.1,179.3,237.9,179.3z M218.4,156.2c-1,0-1.8-0.3-2.4-0.9s-1-1.3-1-2.2s0.3-1.6,1-2.2
				c0.6-0.6,1.4-0.8,2.4-0.8s1.8,0.3,2.4,0.8c0.6,0.6,0.9,1.3,0.9,2.2s-0.3,1.6-0.9,2.2C220.2,155.9,219.4,156.2,218.4,156.2z
				 M215.5,178.9v-19.8h5.8v19.8H215.5z M204.9,179.3c-1.2,0-2.3-0.2-3.1-0.6c-0.9-0.4-1.6-0.9-2.1-1.6s-0.9-1.5-1.2-2.4
				c-0.3-0.9-0.4-2-0.4-3.1v-8h-2.7v-4.3l3-0.2l0.7-5.3h4.8v5.3h4.7v4.6H204v7.9c0,1.1,0.2,1.9,0.7,2.4s1.1,0.7,1.8,0.7
				c0.3,0,0.6,0,1-0.1c0.3-0.1,0.6-0.2,0.9-0.3l0.9,4.3c-0.5,0.2-1.2,0.3-1.9,0.5S205.9,179.3,204.9,179.3z M181.1,174.8
				c0.7,0,1.2-0.1,1.7-0.4s1-0.7,1.5-1.2v-3.5c-2.1,0.3-3.5,0.7-4.3,1.3c-0.8,0.6-1.2,1.2-1.2,2c0,0.6,0.2,1.1,0.6,1.4
				S180.4,174.8,181.1,174.8z M179.1,179.3c-0.9,0-1.7-0.2-2.4-0.5s-1.3-0.7-1.8-1.3c-0.5-0.5-0.9-1.2-1.2-1.9
				c-0.3-0.7-0.4-1.5-0.4-2.4c0-2.1,0.9-3.7,2.6-4.9s4.6-2,8.5-2.4c-0.1-0.9-0.3-1.6-0.8-2.1s-1.2-0.8-2.3-0.8
				c-0.8,0-1.7,0.2-2.5,0.5s-1.7,0.8-2.7,1.3l-2.1-3.9c1.3-0.8,2.6-1.4,4-1.9s2.9-0.7,4.4-0.7c2.5,0,4.5,0.7,5.8,2.2
				c1.3,1.4,2,3.7,2,6.8v11.3h-4.8l-0.4-2h-0.2c-0.8,0.7-1.7,1.3-2.7,1.8C181.3,179.1,180.3,179.3,179.1,179.3z M145.3,178.9v-26h6
				l6.8,12.9l2.5,5.7h0.2c-0.1-1.4-0.3-2.9-0.5-4.6s-0.3-3.3-0.3-4.9v-9.2h5.6v26h-6l-6.8-13l-2.5-5.7h-0.2c0.1,1.4,0.3,3,0.5,4.6
				s0.3,3.2,0.3,4.8v9.2h-5.6V178.9z M313.2,133.5v-19.8h4.8l0.4,2.5h0.2c0.8-0.8,1.8-1.5,2.8-2.1s2.2-0.9,3.5-0.9
				c2.1,0,3.7,0.7,4.7,2.1c1,1.4,1.4,3.4,1.4,5.9v12.3h-5.8V122c0-1.4-0.2-2.4-0.6-3c-0.4-0.5-1-0.8-1.8-0.8c-0.7,0-1.4,0.2-1.9,0.5
				s-1.1,0.8-1.7,1.4v13.4H313.2z M296.3,129.4c0.7,0,1.2-0.1,1.7-0.4s1-0.7,1.5-1.2v-3.5c-2.1,0.3-3.5,0.7-4.3,1.3
				c-0.8,0.6-1.2,1.2-1.2,2c0,0.6,0.2,1.1,0.6,1.4C295.1,129.3,295.6,129.4,296.3,129.4z M294.3,134c-0.9,0-1.7-0.2-2.4-0.5
				c-0.7-0.3-1.3-0.7-1.8-1.3c-0.5-0.5-0.9-1.2-1.2-1.9c-0.3-0.7-0.4-1.5-0.4-2.4c0-2.1,0.9-3.7,2.6-4.9s4.6-2,8.5-2.4
				c-0.1-0.9-0.3-1.6-0.8-2.1s-1.2-0.8-2.3-0.8c-0.8,0-1.7,0.2-2.5,0.5s-1.7,0.8-2.7,1.3l-2.1-3.9c1.3-0.8,2.6-1.4,4-1.9
				s2.9-0.7,4.4-0.7c2.5,0,4.5,0.7,5.8,2.2c1.3,1.4,2,3.7,2,6.8v11.3h-4.8l-0.4-2H300c-0.8,0.7-1.7,1.3-2.7,1.8
				C296.5,133.8,295.4,134,294.3,134z M278.4,110.8c-1,0-1.8-0.3-2.4-0.9c-0.6-0.6-1-1.3-1-2.2s0.3-1.6,1-2.2
				c0.6-0.6,1.4-0.8,2.4-0.8s1.8,0.3,2.4,0.8c0.6,0.6,0.9,1.3,0.9,2.2s-0.3,1.6-0.9,2.2C280.2,110.5,279.4,110.8,278.4,110.8z
				 M275.5,133.5v-19.8h5.8v19.8H275.5z M249.8,133.5v-19.8h4.8l0.4,2.5h0.2c0.8-0.8,1.8-1.5,2.8-2.1s2.2-0.9,3.5-0.9
				c2.1,0,3.7,0.7,4.7,2.1c1,1.4,1.4,3.4,1.4,5.9v12.3h-5.8V122c0-1.4-0.2-2.4-0.6-3c-0.4-0.5-1-0.8-1.8-0.8c-0.7,0-1.4,0.2-1.9,0.5
				s-1.1,0.8-1.7,1.4v13.4H249.8z M230.7,121.5h7.1c0-1.1-0.3-2-0.8-2.7s-1.4-1-2.5-1c-0.9,0-1.7,0.3-2.4,0.9
				C231.4,119.2,230.9,120.2,230.7,121.5z M235.1,134c-1.4,0-2.7-0.2-3.9-0.7c-1.2-0.5-2.3-1.1-3.2-2c-0.9-0.9-1.6-2-2.1-3.3
				c-0.5-1.3-0.8-2.7-0.8-4.4c0-1.6,0.3-3,0.8-4.3s1.2-2.4,2.1-3.3c0.9-0.9,1.8-1.6,3-2.1c1.1-0.5,2.3-0.7,3.5-0.7
				c1.4,0,2.6,0.2,3.7,0.7c1,0.5,1.9,1.1,2.6,2s1.2,1.9,1.6,3c0.3,1.2,0.5,2.4,0.5,3.8c0,0.5,0,1-0.1,1.5s-0.1,0.8-0.2,1.1h-11.8
				c0.3,1.4,0.9,2.5,1.8,3.2c0.9,0.7,2,1,3.4,1s2.8-0.4,4.2-1.3l1.9,3.6c-1,0.7-2.1,1.2-3.4,1.6S236.3,134,235.1,134z M189.3,133.5
				v-19.8h4.8l0.4,2.6h0.2c0.8-0.8,1.7-1.5,2.6-2.1s2-0.9,3.3-0.9c1.4,0,2.5,0.3,3.4,0.9c0.9,0.6,1.5,1.4,2,2.5
				c0.9-0.9,1.8-1.7,2.8-2.3c1-0.7,2.1-1,3.4-1c2.1,0,3.7,0.7,4.7,2.1c1,1.4,1.5,3.4,1.5,5.8v12.3h-5.8v-11.5c0-1.4-0.2-2.4-0.6-3
				c-0.4-0.5-1-0.8-1.8-0.8c-1,0-2.1,0.6-3.4,1.9v13.4H201v-11.5c0-1.4-0.2-2.4-0.6-3c-0.4-0.5-1-0.8-1.8-0.8c-1,0-2.1,0.6-3.3,1.9
				v13.4h-6V133.5z M170.5,133.5v-19.8h4.8l0.4,3.5h0.2c0.7-1.4,1.6-2.4,2.6-3s2-1,3-1c0.6,0,1,0,1.4,0.1s0.7,0.2,1,0.3l-1,5.1
				c-0.4-0.1-0.7-0.2-1-0.2c-0.3-0.1-0.7-0.1-1.1-0.1c-0.7,0-1.5,0.3-2.3,0.8s-1.5,1.5-2,2.8v11.5L170.5,133.5L170.5,133.5z
				 M142,133.5l8.1-26h7l8.1,26H159l-1.6-6.2h-7.9l-1.6,6.2H142z M151.4,120.3l-0.6,2.4h5.5l-0.6-2.4c-0.4-1.3-0.7-2.7-1.1-4.1
				c-0.3-1.5-0.7-2.9-1-4.2h-0.2c-0.3,1.4-0.6,2.8-1,4.2C152.1,117.7,151.7,119,151.4,120.3z"/>
		</defs>
		<clipPath id="SVGID_2_">
			<use xlink:href="#SVGID_1_"  style="overflow:visible;"/>
		</clipPath>
		<g class="st0">
			<g>
				<defs>
					<rect id="SVGID_3_" x="-18" y="-18.3" width="412" height="350"/>
				</defs>
				<clipPath id="SVGID_4_">
					<use xlink:href="#SVGID_3_"  style="overflow:visible;"/>
				</clipPath>
				<rect x="137" y="99.7" class="st1" width="199" height="130"/>
			</g>
		</g>
	</g>
</g>
<linearGradient id="SVGID_5_" gradientUnits="userSpaceOnUse" x1="7.9" y1="119.7175" x2="349.9035" y2="119.7175" gradientTransform="matrix(1 0 0 -1 0 238.3243)">
	<stop  offset="0" style="stop-color:#005CDB"/>
	<stop  offset="1" style="stop-color:#4BAAEB"/>
</linearGradient>
<path class="st2" d="M339.9,63.2c-8-12.3-17-25.2-26.4-37c-5-9.4-17.6-14.5-22.5-2.4c-0.3,0.8-14.4,33.1-25.2,20.5
	c-1.3-1.5-25.3-32.2-37.3-19.9c-4.6,7.8-15.9,24.8-20,31.1c-0.8,1.2-2.4,1.3-3.3,0.2c-4.3-4.9-11.3-12.8-17.5-19.8
	c-2.2-2.8-4.6-5.8-7.2-8.4c-1.1-1.1-14.8-13-15.2-13.5c-4.7-4.9-7.3-0.9-9,0.8c-4.8,5-143.5,193.2-146.2,200c-1,2.6-1.9,5.2-2.2,8.5
	c0.3,0.4,0.6,1.3,1.2,1.9c0.7,0.7,1.7,0.5,2.5-0.1c1.6-1.2,22.6-23.5,25.8-28.5c2.8-4.3,109-137.7,111.5-140.5
	c1.9-2.1,4.1-3.2,7.1-3c1.4,0.1,5.7,6.8,7.2,8.8c2,2.7,4.2,5.4,6.5,7.9l0,0l0.1,0.1c2.5,2.7,5,5.2,7.3,7.3L189.9,90
	c2.5,2.5,6.5,2.5,9,0c6.3-6.5,18-18.8,25.6-29.3c1.3-1.8,3.9-1.8,5.3-0.1c9.5,12.1,16.2,20.6,30.4,29.6
	c16.6-0.4,18.1-24.8,33.1-26.9c2.4-0.3,4.2,0.9,4.9,1.5c11.8,9.4,16.1,29.4,34.8,29.4c8.7-0.5,17.1-5.5,16.9-13.4
	C349.9,76,344,70,339.9,63.2"/>
</svg>
