<?xml version="1.0" encoding="UTF-8"?>
<svg width="42px" height="42px" viewBox="0 0 42 42" version="1.1" xmlns="http://www.w3.org/2000/svg" xmlns:xlink="http://www.w3.org/1999/xlink">
    <!-- Generator: Sketch 56.2 (81672) - https://sketch.com -->
    <title>ic_reddit footer  </title>
    <desc>Created with Sketch.</desc>
    <g id="ic_reddit-footer--" stroke="none" stroke-width="1" fill="none" fill-rule="evenodd">
        <g id="ic_facebook-footer" fill="#0064F8">
            <g id="Oval-2-Copy-3">
                <circle cx="21" cy="21" r="21"></circle>
            </g>
        </g>
        <path d="M33.698,21.00065 C33.698,19.432 32.42175,18.1557 30.85305,18.1557 C30.15525,18.1557 29.49725,18.40815 28.97775,18.8652 C27.0964,17.66125 24.58605,16.9027 21.817,16.821 L23.5113,11.02585 L27.67135,11.79875 C27.67115,11.83255 27.6646,11.8648 27.66635,11.89895 C27.71685,12.889 28.56325,13.65325 29.55335,13.60275 C30.54335,13.55225 31.30765,12.7058 31.25715,11.7158 C31.20665,10.72575 30.36025,9.9615 29.3702,10.012 C28.73095,10.0446 28.18995,10.41125 27.89745,10.9319 C27.89695,10.93175 27.8965,10.9314 27.89595,10.9313 L22.88295,10 L20.88625,16.8194 C18.1105,16.8934 15.5922,17.64755 13.70275,18.8493 C13.186,18.4021 12.53485,18.1557 11.84495,18.1557 C10.27635,18.1557 9,19.43195 9,21.00065 C9,21.9709 9.4995,22.8656 10.30835,23.3876 C10.2592,23.6715 10.23115,23.95975 10.23115,24.2524 C10.23115,28.35875 15.20885,31.6998 21.32785,31.6998 C27.44685,31.6998 32.4245,28.3587 32.4245,24.2524 C32.4245,23.9682 32.3984,23.68825 32.35195,23.41225 C33.1831,22.89425 33.698,21.98615 33.698,21.00065 Z M16.0541,22.93695 C16.0541,21.97205 16.8366,21.18915 17.80285,21.18915 C18.7682,21.18915 19.5507,21.97205 19.5507,22.93695 C19.5507,23.90275 18.7682,24.68525 17.80285,24.68525 C16.8366,24.68525 16.0541,23.90275 16.0541,22.93695 Z M25.44905,27.66555 C25.39695,27.72005 24.14245,28.9963 21.3074,28.9963 C18.4578,28.9963 17.31785,27.70235 17.2709,27.64745 C17.11025,27.45985 17.13215,27.1773 17.31975,27.0172 C17.5064,26.858 17.78615,26.8785 17.94725,27.06325 C17.9728,27.0912 18.92425,28.10265 21.30745,28.10265 C23.73205,28.10265 24.79515,27.05535 24.80585,27.04515 C24.9776,26.87015 25.26015,26.86595 25.43655,27.0377 C25.61195,27.20895 25.6185,27.48825 25.44905,27.66555 Z M25.10135,24.68525 C24.13505,24.68525 23.3526,23.90275 23.3526,22.93695 C23.3526,21.97205 24.1351,21.18915 25.10135,21.18915 C26.06675,21.18915 26.8492,21.97205 26.8492,22.93695 C26.8492,23.90275 26.06675,24.68525 25.10135,24.68525 Z" id="Shape" fill="#FFFFFF" fill-rule="nonzero"></path>
    </g>
</svg>