<?xml version="1.0" encoding="UTF-8"?>
<svg width="42px" height="42px" viewBox="0 0 42 42" version="1.1" xmlns="http://www.w3.org/2000/svg" xmlns:xlink="http://www.w3.org/1999/xlink">
    <g id="ic_twitter_footer" stroke="none" stroke-width="1" fill="none" fill-rule="evenodd">
        <g>
            <circle id="Oval-2-Copy" fill="#FFFFFF" cx="21" cy="21" r="21"></circle>
            <path d="M29.94458,16.7221 C29.32884,16.9958 28.66618,17.18042 27.97088,17.26304 C28.6808,16.83804 29.22514,16.16484 29.48184,15.36176 C28.81782,15.75582 28.08274,16.04176 27.29972,16.19612 C26.6731,15.52836 25.77992,15.11084 24.79154,15.11084 C22.894,15.11084 21.3555,16.64934 21.3555,18.54722 C21.3555,18.81616 21.38576,19.0783 21.44458,19.33024 C18.58858,19.18676 16.05626,17.81894 14.36136,15.73984 C14.06556,16.24712 13.89624,16.83736 13.89624,17.46772 C13.89624,18.65976 14.5028,19.71172 15.42488,20.3278 C14.86184,20.30978 14.33178,20.15508 13.86836,19.8977 C13.86802,19.91198 13.86802,19.9266 13.86802,19.94122 C13.86802,21.60586 15.05258,22.99442 16.62474,23.31062 C16.33642,23.38882 16.0328,23.43098 15.71932,23.43098 C15.49764,23.43098 15.28242,23.40956 15.07264,23.3691 C15.51022,24.7342 16.7791,25.72802 18.28258,25.75556 C17.10652,26.6773 15.62514,27.22674 14.0149,27.22674 C13.7378,27.22674 13.4641,27.21042 13.19516,27.17846 C14.71632,28.15392 16.5224,28.7224 18.46278,28.7224 C24.78372,28.7224 28.23982,23.4864 28.23982,18.94536 C28.23982,18.79644 28.23676,18.64786 28.2303,18.5003 C28.90146,18.01682 29.48422,17.41128 29.94458,16.7221 Z" id="Path" fill="#005CDB"></path>
        </g>
    </g>
</svg>
