<?xml version="1.0" encoding="UTF-8"?>
<svg width="42px" height="42px" viewBox="0 0 42 42" version="1.1" xmlns="http://www.w3.org/2000/svg" xmlns:xlink="http://www.w3.org/1999/xlink">
    <!-- Generator: Sketch 56.2 (81672) - https://sketch.com -->
    <title>ic_vk footer </title>
    <desc>Created with Sketch.</desc>
    <g id="ic_vk-footer-" stroke="none" stroke-width="1" fill="none" fill-rule="evenodd">
        <g id="ic_facebook-footer" fill="#0064F8">
            <g id="Oval-2-Copy-3">
                <circle cx="21" cy="21" r="21"></circle>
            </g>
        </g>
        <g id="iconfinder_social_media_social_media_logo_vk_1915976" transform="translate(9.000000, 15.000000)" fill="#FFFFFF" fill-rule="nonzero">
            <path d="M18.48,7.04 C18.6912,6.644 19.4392,5.5088 20.0024,4.664 C21.692,2.1648 22,1.6368 22,1.32 C22,1.07699471 21.8030053,0.88 21.56,0.88 L17.6,0.88 C17.3881507,0.880777035 17.2069317,1.03240922 17.1688,1.2408 C16.9488,2.4552 14.0976,5.94 13.6488,6.16 C13.464,6.16 13.2088,5.7024 13.2088,4.84 L13.2088,1.1264 C13.2576311,0.835993793 13.1808614,0.538511358 12.9976,0.308 C12.6984,0 12.2496,0 11,0 C8.7296,0 7.92,0.6776 7.92,1.32 C7.910223,1.43180118 7.94729902,1.54264374 8.0223755,1.62606205 C8.09745198,1.70948036 8.2037902,1.75798695 8.316,1.76 C8.316,1.76 8.8,2.0768 8.8,3.96 C8.8248798,4.69525575 8.786606,5.43129031 8.6856,6.16 C7.568,5.9576 6.0192,3.168 5.28,1.1616 C5.21095322,0.981402961 5.03254925,0.867224423 4.84,0.88 L1.32,0.88 C1.18819007,0.87784358 1.06235785,0.934900907 0.977128467,1.03547158 C0.891899082,1.13604226 0.856253399,1.26952885 0.88,1.3992 C1.37279874,4.0568 6.9608,12.32 10.56,12.32 L12.32,12.32 C13.2528,12.32 13.3232,11.308 13.376,10.6392 C13.4288,9.9704 13.4728,9.68 13.64,9.68 C14.1856,9.68 15.3032,10.648 16.0336,11.2816 C16.764,11.9152 17.2392,12.32 17.6,12.32 L19.8,12.32 C20.9352,12.32 22,12.32 22,11.44 C22,11.1056 21.7096,10.7184 20.0376,8.8 C19.4832,8.1928 18.7352,7.3568 18.48,7.04 Z" id="Path"></path>
        </g>
    </g>
</svg>