<?xml version="1.0" encoding="UTF-8"?>
<svg width="128px" height="80px" viewBox="0 0 128 80" version="1.1" xmlns="http://www.w3.org/2000/svg" xmlns:xlink="http://www.w3.org/1999/xlink">
    <!-- Generator: Sketch 56.2 (81672) - https://sketch.com -->
    <title>logo_symbol gradient</title>
    <desc>Created with Sketch.</desc>
    <defs>
        <linearGradient x1="109.761836%" y1="25.8270725%" x2="0.56781355%" y2="69.3051621%" id="linearGradient-1">
            <stop stop-color="#4CAAEB" offset="0%"></stop>
            <stop stop-color="#005CDB" offset="100%"></stop>
        </linearGradient>
    </defs>
    <g id="logo_symbol-gradient" stroke="none" stroke-width="1" fill="none" fill-rule="evenodd">
        <g id="img_logo-colores" fill="url(#linearGradient-1)">
            <g id="Group-Copy-4">
                <g id="Group-3">
                    <path d="M124.23449,19.2564187 C121.233065,14.6534762 117.876686,9.81860804 114.358511,5.42980554 C112.504626,1.89969726 107.754805,0 105.945111,4.54336561 C105.822517,4.8499913 100.569488,16.914396 96.5238716,12.1954907 C96.0320683,11.6220793 87.0677068,0.148160256 82.5538083,4.75110274 C80.8260821,7.6644025 76.6158186,14.0067877 75.0712713,16.3794018 C74.7883063,16.8140846 74.1703448,16.8603275 73.8267953,16.4704646 C72.2102594,14.6378248 69.615819,11.6861079 67.2793972,9.07445381 C66.4497465,8.02011676 65.5538093,6.89534828 64.5823197,5.91571121 C64.1767602,5.50806268 59.0370599,1.03815733 58.8923699,0.885911625 C57.1411227,-0.950996797 56.1439738,0.536600225 55.5310016,1.1797316 C53.7348506,3.06430573 1.83107615,73.3939943 0.818959323,75.9615398 C0.436208099,76.9312168 0.1026372,77.9136996 0,79.1402024 C0.0947968582,79.2924481 0.218816808,79.6282423 0.456165332,79.8359795 C0.732715565,80.079288 1.10548817,80.0387366 1.40912322,79.8011195 C1.99643609,79.3429595 9.86172428,71.0192459 11.0734134,69.1624175 C12.1282958,67.5481862 51.8617218,17.6948331 52.7925841,16.6383618 C53.4853852,15.8515218 54.341408,15.4388933 55.4376303,15.5328019 C55.9615077,15.5776219 57.5787563,18.0761588 58.1290058,18.8395216 C58.8588703,19.8511729 59.7049144,20.8535757 60.5659265,21.7912385 C60.5659265,21.7919499 60.5652137,21.7926613 60.5652137,21.7933728 L60.5972879,21.8253871 C61.5331396,22.8434413 62.4825337,23.7775469 63.327865,24.5558497 L68.1282924,29.3565693 C69.0548782,30.2828492 70.5659259,30.2792921 71.4839586,29.344475 C73.8588694,26.9277524 78.2202376,22.3319242 81.0705582,18.3984359 C81.5523828,17.7346731 82.5324255,17.7133303 83.0391967,18.3585959 C86.5944353,22.886127 89.1133232,26.0541181 94.4219473,29.4163293 C100.64504,29.2719093 101.191726,20.1485501 106.827506,19.3752273 C107.739124,19.2500158 108.389872,19.7103101 108.672125,19.9365444 C113.080535,23.4630955 114.690656,30.9459006 121.683528,30.916732 C124.925866,30.7445663 128.07697,28.8493208 127.998567,25.8990267 C127.949386,24.0464669 125.749814,21.7770099 124.23449,19.2564187" id="Fill-1"></path>
                </g>
            </g>
        </g>
    </g>
</svg>