<?xml version="1.0" encoding="UTF-8"?>
<svg width="34px" height="30px" viewBox="0 0 34 30" version="1.1" xmlns="http://www.w3.org/2000/svg" xmlns:xlink="http://www.w3.org/1999/xlink">
    <!-- Generator: Sketch 56.2 (81672) - https://sketch.com -->
    <title>ic_note</title>
    <desc>Created with Sketch.</desc>
    <g id="ic_note" stroke="none" stroke-width="1" fill="none" fill-rule="evenodd">
        <path d="M25,15.2559727 C25,16.3481283 25.633327,16.9283273 26.9,16.996587 L28.9,17.0989761 C30.23334,17.1672358 31.4166615,17.8156935 32.45,19.0443686 C33.4833385,20.2730437 34,21.6723471 34,23.2423208 C34,25.1535932 33.33334,26.7576727 32,28.0546075 C30.66666,29.3515423 29.00001,30 27,30 C24.666655,30 22.7500075,29.0614428 21.25,27.1843003 C19.7499925,25.3071578 19,22.9010386 19,19.9658703 C19,14.5050922 21.099979,8.9078785 25.3,3.17406143 C26.833341,1.0580099 28.166661,0 29.3,0 C30.566673,0 31.2,0.682587031 31.2,2.04778157 C31.2,2.59385939 30.833337,3.34470512 30.1,4.3003413 C28.299991,6.62117201 26.800006,9.38564949 25.6,12.5938567 C25.199998,13.6860123 25,14.5733754 25,15.2559727 Z M5.9,15.2559727 C5.9,16.3481283 6.533327,16.9283273 7.8,16.996587 L9.8,17.0989761 C11.200007,17.1672358 12.4166615,17.8156935 13.45,19.0443686 C14.4833385,20.2730437 15,21.6723471 15,23.2423208 C15,25.1535932 14.33334,26.7576727 13,28.0546075 C11.66666,29.3515423 10.00001,30 8,30 C5.666655,30 3.7500075,29.0614428 2.25,27.1843003 C0.7499925,25.3071578 0,22.9010386 0,19.9658703 C0,14.5050922 2.099979,8.9078785 6.3,3.17406143 C7.833341,1.0580099 9.166661,0 10.3,0 C11.566673,0 12.2,0.682587031 12.2,2.04778157 C12.2,2.59385939 11.833337,3.34470512 11.1,4.3003413 C9.76666,6.00683447 8.566672,7.98633686 7.5,10.2389078 C6.433328,12.4914788 5.9,14.1638171 5.9,15.2559727 Z" fill="#FFFFFF"></path>
    </g>
</svg>