<?xml version="1.0" encoding="UTF-8"?>
<svg width="42px" height="42px" viewBox="0 0 42 42" version="1.1" xmlns="http://www.w3.org/2000/svg" xmlns:xlink="http://www.w3.org/1999/xlink">
    <g id="ic_youtube_footer" stroke="none" stroke-width="1" fill="none" fill-rule="evenodd">
        <g>
            <circle id="Oval-2-Copy-2" fill="#FFFFFF" cx="21" cy="21" r="21"></circle>
            <path d="M29.6849457,25.5278258 C29.4646555,26.4851693 28.6815621,27.1910476 27.7392899,27.2963409 C25.5072775,27.5457416 23.2482193,27.5469804 20.9988645,27.5457416 C18.7497161,27.5469804 16.4904513,27.5457416 14.2586454,27.2963409 C13.3161668,27.1910476 12.5334862,26.4851693 12.3134026,25.5278258 C12,24.1643802 12,22.6766472 12,21.2731489 C12,19.8694441 12.0037162,18.3815047 12.3169123,17.0180592 C12.5372025,16.0607156 13.319883,15.3546308 14.2621552,15.249544 C16.4941676,15.0001433 18.7532259,14.9989045 21.0025807,15.0001433 C23.251729,14.9989045 25.5109938,15.0001433 27.7427997,15.249544 C28.6852784,15.3546308 29.4683718,16.0607156 29.6884555,17.0180592 C30.001858,18.3815047 30,19.8694441 30,21.2731489 C30,22.6766472 29.9981418,24.1643802 29.6849457,25.5278258 Z M19.3799323,18.6899661 L19.3799323,24.4420541 L24.3613866,21.5660101 L19.3799323,18.6899661 Z" id="Combined-Shape" fill="#005CDB"></path>
        </g>
    </g>
</svg>
